{
	"asset":{
		"generator":"Khronos glTF Blender I/O v3.5.30",
		"version":"2.0"
	},
	"extensionsUsed":[
		"KHR_materials_specular",
		"KHR_materials_ior"
	],
	"scene":0,
	"scenes":[
		{
			"name":"Scene",
			"nodes":[
				0,
				1,
				2,
				3,
				4,
				5,
				6,
				7,
				8,
				9,
				10,
				11,
				12,
				13,
				14,
				15,
				16,
				17,
				18,
				19,
				20,
				21,
				22,
				23,
				24,
				25,
				26,
				27,
				28
			]
		}
	],
	"nodes":[
		{
			"mesh":0,
			"name":"Eiffel_tower",
			"rotation":[
				0.5751280784606934,
				0.4131866991519928,
				-0.45251935720443726,
				0.5419692397117615
			],
			"scale":[
				0.05066307634115219,
				0.05066307634115219,
				0.05066307634115219
			],
			"translation":[
				-31.164579391479492,
				8.766383171081543,
				-7.841713905334473
			]
		},
		{
			"mesh":1,
			"name":"map_21.osm_buildings",
			"translation":[
				44.01243591308594,
				5.457875728607178,
				64.48904418945312
			]
		},
		{
			"name":"map_21.osm_roads_primary",
			"translation":[
				-35.30331802368164,
				0.30000001192092896,
				-96.75535583496094
			]
		},
		{
			"name":"map_21.osm_roads_residential",
			"translation":[
				97.94129943847656,
				0.30000001192092896,
				61.987876892089844
			]
		},
		{
			"name":"map_21.osm_roads_secondary",
			"translation":[
				-81.4060287475586,
				0.30000001192092896,
				17.832889556884766
			]
		},
		{
			"mesh":2,
			"name":"map_21.osm_vegetation",
			"translation":[
				-43.19051742553711,
				0,
				43.90010452270508
			]
		},
		{
			"name":"map_21.osm_roads_service",
			"translation":[
				23.81792449951172,
				0.30000001192092896,
				2.062638282775879
			]
		},
		{
			"mesh":3,
			"name":"map_21.osm_buildings.001",
			"translation":[
				-38.29653549194336,
				10.503371238708496,
				47.68476104736328
			]
		},
		{
			"mesh":4,
			"name":"map_21.osm_buildings.002",
			"translation":[
				15.412847518920898,
				2.270507335662842,
				-33.97012710571289
			]
		},
		{
			"mesh":5,
			"name":"map_21.osm_buildings.003",
			"translation":[
				0.6411579847335815,
				8.033439636230469,
				36.074363708496094
			]
		},
		{
			"mesh":6,
			"name":"map_21.osm_buildings.004",
			"translation":[
				-31.260984420776367,
				8.33277416229248,
				11.825636863708496
			]
		},
		{
			"mesh":7,
			"name":"map_21.osm_buildings.005",
			"translation":[
				-23.79221534729004,
				8.554903030395508,
				-23.95413589477539
			]
		},
		{
			"mesh":8,
			"name":"map_21.osm_buildings.006",
			"translation":[
				44.206817626953125,
				6.4192705154418945,
				-7.836130619049072
			]
		},
		{
			"mesh":9,
			"name":"map_21.osm_vegetation.001",
			"translation":[
				-15.314966201782227,
				0,
				-3.724619150161743
			]
		},
		{
			"mesh":10,
			"name":"map_21.osm_vegetation.002",
			"translation":[
				-40.89910888671875,
				0,
				-9.059550285339355
			]
		},
		{
			"name":"map_21.osm_roads_residential.001",
			"translation":[
				97.94129943847656,
				0.30000001192092896,
				61.987876892089844
			]
		},
		{
			"name":"map_21.osm_roads_residential.002",
			"translation":[
				97.94129943847656,
				0.30000001192092896,
				61.987876892089844
			]
		},
		{
			"name":"map_21.osm_roads_service.001",
			"translation":[
				23.81792449951172,
				0.30000001192092896,
				2.062638282775879
			]
		},
		{
			"name":"map_21.osm_roads_service.002",
			"translation":[
				23.81792449951172,
				0.30000001192092896,
				2.062638282775879
			]
		},
		{
			"name":"map_21.osm_roads_service.003",
			"translation":[
				23.81792449951172,
				0.30000001192092896,
				2.062638282775879
			]
		},
		{
			"name":"map_21.osm_roads_service.004",
			"translation":[
				23.81792449951172,
				0.30000001192092896,
				2.062638282775879
			]
		},
		{
			"name":"map_21.osm_roads_service.005",
			"translation":[
				23.81792449951172,
				0.30000001192092896,
				2.062638282775879
			]
		},
		{
			"name":"map_21.osm_roads_service.006",
			"translation":[
				23.81792449951172,
				0.30000001192092896,
				2.062638282775879
			]
		},
		{
			"name":"map_21.osm_roads_service.007",
			"translation":[
				23.81792449951172,
				0.30000001192092896,
				2.062638282775879
			]
		},
		{
			"name":"map_21.osm_roads_service.008",
			"translation":[
				23.81792449951172,
				0.30000001192092896,
				2.062638282775879
			]
		},
		{
			"name":"profile_roads_primary",
			"translation":[
				0,
				0,
				-13.23994255065918
			]
		},
		{
			"name":"profile_roads_secondary",
			"translation":[
				0,
				0,
				-11.940256118774414
			]
		},
		{
			"name":"profile_roads_residential",
			"translation":[
				0,
				0,
				-6.9708662033081055
			]
		},
		{
			"name":"profile_roads_service",
			"translation":[
				0,
				0,
				-3.567683458328247
			]
		}
	],
	"materials":[
		{
			"doubleSided":true,
			"extensions":{
				"KHR_materials_specular":{
					"specularColorFactor":[
						0,
						0,
						0
					]
				},
				"KHR_materials_ior":{
					"ior":1.4500000476837158
				}
			},
			"name":"wire_177088027",
			"pbrMetallicRoughness":{
				"baseColorFactor":[
					0.800000011920929,
					0.800000011920929,
					0.800000011920929,
					1
				],
				"metallicFactor":0
			}
		},
		{
			"doubleSided":true,
			"name":"wall",
			"pbrMetallicRoughness":{
				"baseColorTexture":{
					"index":0
				},
				"metallicFactor":0,
				"roughnessFactor":0.5
			}
		},
		{
			"doubleSided":true,
			"name":"roof",
			"pbrMetallicRoughness":{
				"baseColorFactor":[
					0.005400358233600855,
					0.0450875461101532,
					0.8000000715255737,
					1
				],
				"metallicFactor":0,
				"roughnessFactor":0.5
			}
		},
		{
			"doubleSided":true,
			"name":"vegetation",
			"pbrMetallicRoughness":{
				"baseColorFactor":[
					0.007000000216066837,
					0.5580000281333923,
					0.004999999888241291,
					1
				],
				"metallicFactor":0,
				"roughnessFactor":0.4000000059604645
			}
		}
	],
	"meshes":[
		{
			"name":"Eiffel_tower",
			"primitives":[
				{
					"attributes":{
						"POSITION":0,
						"TEXCOORD_0":1,
						"NORMAL":2
					},
					"indices":3,
					"material":0
				}
			]
		},
		{
			"name":"map_21.osm_buildings",
			"primitives":[
				{
					"attributes":{
						"POSITION":4,
						"NORMAL":5
					},
					"indices":6,
					"material":1
				},
				{
					"attributes":{
						"POSITION":7,
						"NORMAL":8
					},
					"indices":9,
					"material":2
				}
			]
		},
		{
			"name":"map_21.osm_vegetation",
			"primitives":[
				{
					"attributes":{
						"POSITION":10,
						"NORMAL":11
					},
					"indices":12,
					"material":3
				}
			]
		},
		{
			"name":"map_21.osm_buildings.001",
			"primitives":[
				{
					"attributes":{
						"POSITION":13,
						"NORMAL":14
					},
					"indices":15,
					"material":1
				},
				{
					"attributes":{
						"POSITION":16,
						"NORMAL":17
					},
					"indices":18,
					"material":2
				}
			]
		},
		{
			"name":"map_21.osm_buildings.002",
			"primitives":[
				{
					"attributes":{
						"POSITION":19,
						"NORMAL":20
					},
					"indices":21,
					"material":1
				},
				{
					"attributes":{
						"POSITION":22,
						"NORMAL":23
					},
					"indices":9,
					"material":2
				}
			]
		},
		{
			"name":"map_21.osm_buildings.003",
			"primitives":[
				{
					"attributes":{
						"POSITION":24,
						"NORMAL":25
					},
					"indices":26,
					"material":1
				},
				{
					"attributes":{
						"POSITION":27,
						"NORMAL":28
					},
					"indices":29,
					"material":2
				}
			]
		},
		{
			"name":"map_21.osm_buildings.004",
			"primitives":[
				{
					"attributes":{
						"POSITION":30,
						"NORMAL":31
					},
					"indices":32,
					"material":1
				},
				{
					"attributes":{
						"POSITION":33,
						"NORMAL":34
					},
					"indices":35,
					"material":2
				}
			]
		},
		{
			"name":"map_21.osm_buildings.005",
			"primitives":[
				{
					"attributes":{
						"POSITION":36,
						"NORMAL":37
					},
					"indices":32,
					"material":1
				},
				{
					"attributes":{
						"POSITION":38,
						"NORMAL":39
					},
					"indices":40,
					"material":2
				}
			]
		},
		{
			"name":"map_21.osm_buildings.006",
			"primitives":[
				{
					"attributes":{
						"POSITION":41,
						"NORMAL":42
					},
					"indices":43,
					"material":1
				},
				{
					"attributes":{
						"POSITION":44,
						"NORMAL":45
					},
					"indices":46,
					"material":2
				}
			]
		},
		{
			"name":"map_21.osm_vegetation.001",
			"primitives":[
				{
					"attributes":{
						"POSITION":47,
						"NORMAL":48
					},
					"indices":49,
					"material":3
				}
			]
		},
		{
			"name":"map_21.osm_vegetation.002",
			"primitives":[
				{
					"attributes":{
						"POSITION":50,
						"NORMAL":51
					},
					"indices":52,
					"material":3
				}
			]
		}
	],
	"textures":[
		{
			"sampler":0,
			"source":0
		}
	],
	"images":[
		{
			"mimeType":"image/png",
			"name":"ParedesTextures",
			"uri":"ParedesTextures.png"
		}
	],
	"accessors":[
		{
			"bufferView":0,
			"componentType":5126,
			"count":10595,
			"max":[
				60.29710006713867,
				124.14520263671875,
				163.22320556640625
			],
			"min":[
				-63.16749954223633,
				0.2037000060081482,
				-157.6385040283203
			],
			"type":"VEC3"
		},
		{
			"bufferView":1,
			"componentType":5126,
			"count":10595,
			"type":"VEC2"
		},
		{
			"bufferView":2,
			"componentType":5126,
			"count":10595,
			"type":"VEC3"
		},
		{
			"bufferView":3,
			"componentType":5123,
			"count":18972,
			"type":"SCALAR"
		},
		{
			"bufferView":4,
			"componentType":5126,
			"count":16,
			"max":[
				20.28144073486328,
				6.726032733917236,
				12.843521118164062
			],
			"min":[
				-20.281417846679688,
				-6.726032733917236,
				-12.837963104248047
			],
			"type":"VEC3"
		},
		{
			"bufferView":5,
			"componentType":5126,
			"count":16,
			"type":"VEC3"
		},
		{
			"bufferView":6,
			"componentType":5123,
			"count":24,
			"type":"SCALAR"
		},
		{
			"bufferView":7,
			"componentType":5126,
			"count":4,
			"max":[
				20.28144073486328,
				6.726032733917236,
				12.843521118164062
			],
			"min":[
				-20.281417846679688,
				6.726032733917236,
				-12.837963104248047
			],
			"type":"VEC3"
		},
		{
			"bufferView":8,
			"componentType":5126,
			"count":4,
			"type":"VEC3"
		},
		{
			"bufferView":9,
			"componentType":5123,
			"count":6,
			"type":"SCALAR"
		},
		{
			"bufferView":10,
			"componentType":5126,
			"count":9,
			"max":[
				30.356752395629883,
				0,
				21.47964096069336
			],
			"min":[
				-26.896175384521484,
				0,
				-28.44701385498047
			],
			"type":"VEC3"
		},
		{
			"bufferView":11,
			"componentType":5126,
			"count":9,
			"type":"VEC3"
		},
		{
			"bufferView":12,
			"componentType":5123,
			"count":21,
			"type":"SCALAR"
		},
		{
			"bufferView":13,
			"componentType":5126,
			"count":84,
			"max":[
				23.912994384765625,
				10.503371238708496,
				11.461082458496094
			],
			"min":[
				-23.584213256835938,
				-10.503371238708496,
				-11.40380859375
			],
			"type":"VEC3"
		},
		{
			"bufferView":14,
			"componentType":5126,
			"count":84,
			"type":"VEC3"
		},
		{
			"bufferView":15,
			"componentType":5123,
			"count":126,
			"type":"SCALAR"
		},
		{
			"bufferView":16,
			"componentType":5126,
			"count":21,
			"max":[
				23.912994384765625,
				10.503371238708496,
				11.461082458496094
			],
			"min":[
				-23.584213256835938,
				10.503371238708496,
				-11.40380859375
			],
			"type":"VEC3"
		},
		{
			"bufferView":17,
			"componentType":5126,
			"count":21,
			"type":"VEC3"
		},
		{
			"bufferView":18,
			"componentType":5123,
			"count":57,
			"type":"SCALAR"
		},
		{
			"bufferView":19,
			"componentType":5126,
			"count":16,
			"max":[
				6.4649810791015625,
				2.270507335662842,
				10.427854537963867
			],
			"min":[
				-6.469944000244141,
				-2.270507335662842,
				-10.422290802001953
			],
			"type":"VEC3"
		},
		{
			"bufferView":20,
			"componentType":5126,
			"count":16,
			"type":"VEC3"
		},
		{
			"bufferView":21,
			"componentType":5123,
			"count":24,
			"type":"SCALAR"
		},
		{
			"bufferView":22,
			"componentType":5126,
			"count":4,
			"max":[
				6.4649810791015625,
				2.270507335662842,
				10.427854537963867
			],
			"min":[
				-6.469944000244141,
				2.270507335662842,
				-10.422290802001953
			],
			"type":"VEC3"
		},
		{
			"bufferView":23,
			"componentType":5126,
			"count":4,
			"type":"VEC3"
		},
		{
			"bufferView":24,
			"componentType":5126,
			"count":44,
			"max":[
				7.894386291503906,
				8.033439636230469,
				10.470104217529297
			],
			"min":[
				-8.209579467773438,
				-8.033439636230469,
				-9.344764709472656
			],
			"type":"VEC3"
		},
		{
			"bufferView":25,
			"componentType":5126,
			"count":44,
			"type":"VEC3"
		},
		{
			"bufferView":26,
			"componentType":5123,
			"count":66,
			"type":"SCALAR"
		},
		{
			"bufferView":27,
			"componentType":5126,
			"count":11,
			"max":[
				7.894386291503906,
				8.033439636230469,
				10.470104217529297
			],
			"min":[
				-8.209579467773438,
				8.033439636230469,
				-9.344764709472656
			],
			"type":"VEC3"
		},
		{
			"bufferView":28,
			"componentType":5126,
			"count":11,
			"type":"VEC3"
		},
		{
			"bufferView":29,
			"componentType":5123,
			"count":27,
			"type":"SCALAR"
		},
		{
			"bufferView":30,
			"componentType":5126,
			"count":80,
			"max":[
				24.06012535095215,
				8.33277416229248,
				10.150622367858887
			],
			"min":[
				-22.364282608032227,
				-8.33277416229248,
				-9.441505432128906
			],
			"type":"VEC3"
		},
		{
			"bufferView":31,
			"componentType":5126,
			"count":80,
			"type":"VEC3"
		},
		{
			"bufferView":32,
			"componentType":5123,
			"count":120,
			"type":"SCALAR"
		},
		{
			"bufferView":33,
			"componentType":5126,
			"count":20,
			"max":[
				24.06012535095215,
				8.33277416229248,
				10.150622367858887
			],
			"min":[
				-22.364282608032227,
				8.33277416229248,
				-9.441505432128906
			],
			"type":"VEC3"
		},
		{
			"bufferView":34,
			"componentType":5126,
			"count":20,
			"type":"VEC3"
		},
		{
			"bufferView":35,
			"componentType":5123,
			"count":54,
			"type":"SCALAR"
		},
		{
			"bufferView":36,
			"componentType":5126,
			"count":80,
			"max":[
				23.82375144958496,
				8.554906845092773,
				10.564189910888672
			],
			"min":[
				-23.415430068969727,
				-8.554903030395508,
				-10.953788757324219
			],
			"type":"VEC3"
		},
		{
			"bufferView":37,
			"componentType":5126,
			"count":80,
			"type":"VEC3"
		},
		{
			"bufferView":38,
			"componentType":5126,
			"count":20,
			"max":[
				23.82375144958496,
				8.554906845092773,
				10.564189910888672
			],
			"min":[
				-23.415430068969727,
				8.554906845092773,
				-10.953788757324219
			],
			"type":"VEC3"
		},
		{
			"bufferView":39,
			"componentType":5126,
			"count":20,
			"type":"VEC3"
		},
		{
			"bufferView":40,
			"componentType":5123,
			"count":54,
			"type":"SCALAR"
		},
		{
			"bufferView":41,
			"componentType":5126,
			"count":40,
			"max":[
				24.612060546875,
				6.419269561767578,
				5.812080383300781
			],
			"min":[
				-18.65323829650879,
				-6.4192705154418945,
				-12.64483642578125
			],
			"type":"VEC3"
		},
		{
			"bufferView":42,
			"componentType":5126,
			"count":40,
			"type":"VEC3"
		},
		{
			"bufferView":43,
			"componentType":5123,
			"count":60,
			"type":"SCALAR"
		},
		{
			"bufferView":44,
			"componentType":5126,
			"count":10,
			"max":[
				24.612060546875,
				6.419269561767578,
				5.812080383300781
			],
			"min":[
				-18.65323829650879,
				6.419269561767578,
				-12.64483642578125
			],
			"type":"VEC3"
		},
		{
			"bufferView":45,
			"componentType":5126,
			"count":10,
			"type":"VEC3"
		},
		{
			"bufferView":46,
			"componentType":5123,
			"count":24,
			"type":"SCALAR"
		},
		{
			"bufferView":47,
			"componentType":5126,
			"count":4,
			"max":[
				11.332913398742676,
				0,
				11.886128425598145
			],
			"min":[
				-11.327932357788086,
				0,
				-11.89169692993164
			],
			"type":"VEC3"
		},
		{
			"bufferView":48,
			"componentType":5126,
			"count":4,
			"type":"VEC3"
		},
		{
			"bufferView":49,
			"componentType":5123,
			"count":6,
			"type":"SCALAR"
		},
		{
			"bufferView":50,
			"componentType":5126,
			"count":4,
			"max":[
				10.222709655761719,
				0,
				10.608726501464844
			],
			"min":[
				-10.222698211669922,
				0,
				-10.60872745513916
			],
			"type":"VEC3"
		},
		{
			"bufferView":51,
			"componentType":5126,
			"count":4,
			"type":"VEC3"
		},
		{
			"bufferView":52,
			"componentType":5123,
			"count":6,
			"type":"SCALAR"
		}
	],
	"bufferViews":[
		{
			"buffer":0,
			"byteLength":127140,
			"byteOffset":0,
			"target":34962
		},
		{
			"buffer":0,
			"byteLength":84760,
			"byteOffset":127140,
			"target":34962
		},
		{
			"buffer":0,
			"byteLength":127140,
			"byteOffset":211900,
			"target":34962
		},
		{
			"buffer":0,
			"byteLength":37944,
			"byteOffset":339040,
			"target":34963
		},
		{
			"buffer":0,
			"byteLength":192,
			"byteOffset":376984,
			"target":34962
		},
		{
			"buffer":0,
			"byteLength":192,
			"byteOffset":377176,
			"target":34962
		},
		{
			"buffer":0,
			"byteLength":48,
			"byteOffset":377368,
			"target":34963
		},
		{
			"buffer":0,
			"byteLength":48,
			"byteOffset":377416,
			"target":34962
		},
		{
			"buffer":0,
			"byteLength":48,
			"byteOffset":377464,
			"target":34962
		},
		{
			"buffer":0,
			"byteLength":12,
			"byteOffset":377512,
			"target":34963
		},
		{
			"buffer":0,
			"byteLength":108,
			"byteOffset":377524,
			"target":34962
		},
		{
			"buffer":0,
			"byteLength":108,
			"byteOffset":377632,
			"target":34962
		},
		{
			"buffer":0,
			"byteLength":42,
			"byteOffset":377740,
			"target":34963
		},
		{
			"buffer":0,
			"byteLength":1008,
			"byteOffset":377784,
			"target":34962
		},
		{
			"buffer":0,
			"byteLength":1008,
			"byteOffset":378792,
			"target":34962
		},
		{
			"buffer":0,
			"byteLength":252,
			"byteOffset":379800,
			"target":34963
		},
		{
			"buffer":0,
			"byteLength":252,
			"byteOffset":380052,
			"target":34962
		},
		{
			"buffer":0,
			"byteLength":252,
			"byteOffset":380304,
			"target":34962
		},
		{
			"buffer":0,
			"byteLength":114,
			"byteOffset":380556,
			"target":34963
		},
		{
			"buffer":0,
			"byteLength":192,
			"byteOffset":380672,
			"target":34962
		},
		{
			"buffer":0,
			"byteLength":192,
			"byteOffset":380864,
			"target":34962
		},
		{
			"buffer":0,
			"byteLength":48,
			"byteOffset":381056,
			"target":34963
		},
		{
			"buffer":0,
			"byteLength":48,
			"byteOffset":381104,
			"target":34962
		},
		{
			"buffer":0,
			"byteLength":48,
			"byteOffset":381152,
			"target":34962
		},
		{
			"buffer":0,
			"byteLength":528,
			"byteOffset":381200,
			"target":34962
		},
		{
			"buffer":0,
			"byteLength":528,
			"byteOffset":381728,
			"target":34962
		},
		{
			"buffer":0,
			"byteLength":132,
			"byteOffset":382256,
			"target":34963
		},
		{
			"buffer":0,
			"byteLength":132,
			"byteOffset":382388,
			"target":34962
		},
		{
			"buffer":0,
			"byteLength":132,
			"byteOffset":382520,
			"target":34962
		},
		{
			"buffer":0,
			"byteLength":54,
			"byteOffset":382652,
			"target":34963
		},
		{
			"buffer":0,
			"byteLength":960,
			"byteOffset":382708,
			"target":34962
		},
		{
			"buffer":0,
			"byteLength":960,
			"byteOffset":383668,
			"target":34962
		},
		{
			"buffer":0,
			"byteLength":240,
			"byteOffset":384628,
			"target":34963
		},
		{
			"buffer":0,
			"byteLength":240,
			"byteOffset":384868,
			"target":34962
		},
		{
			"buffer":0,
			"byteLength":240,
			"byteOffset":385108,
			"target":34962
		},
		{
			"buffer":0,
			"byteLength":108,
			"byteOffset":385348,
			"target":34963
		},
		{
			"buffer":0,
			"byteLength":960,
			"byteOffset":385456,
			"target":34962
		},
		{
			"buffer":0,
			"byteLength":960,
			"byteOffset":386416,
			"target":34962
		},
		{
			"buffer":0,
			"byteLength":240,
			"byteOffset":387376,
			"target":34962
		},
		{
			"buffer":0,
			"byteLength":240,
			"byteOffset":387616,
			"target":34962
		},
		{
			"buffer":0,
			"byteLength":108,
			"byteOffset":387856,
			"target":34963
		},
		{
			"buffer":0,
			"byteLength":480,
			"byteOffset":387964,
			"target":34962
		},
		{
			"buffer":0,
			"byteLength":480,
			"byteOffset":388444,
			"target":34962
		},
		{
			"buffer":0,
			"byteLength":120,
			"byteOffset":388924,
			"target":34963
		},
		{
			"buffer":0,
			"byteLength":120,
			"byteOffset":389044,
			"target":34962
		},
		{
			"buffer":0,
			"byteLength":120,
			"byteOffset":389164,
			"target":34962
		},
		{
			"buffer":0,
			"byteLength":48,
			"byteOffset":389284,
			"target":34963
		},
		{
			"buffer":0,
			"byteLength":48,
			"byteOffset":389332,
			"target":34962
		},
		{
			"buffer":0,
			"byteLength":48,
			"byteOffset":389380,
			"target":34962
		},
		{
			"buffer":0,
			"byteLength":12,
			"byteOffset":389428,
			"target":34963
		},
		{
			"buffer":0,
			"byteLength":48,
			"byteOffset":389440,
			"target":34962
		},
		{
			"buffer":0,
			"byteLength":48,
			"byteOffset":389488,
			"target":34962
		},
		{
			"buffer":0,
			"byteLength":12,
			"byteOffset":389536,
			"target":34963
		}
	],
	"samplers":[
		{
			"magFilter":9729,
			"minFilter":9987
		}
	],
	"buffers":[
		{
			"byteLength":389548,
			"uri":"Ministerio3D.bin"
		}
	]
}
