{
	"asset":{
		"generator":"Khronos glTF Blender I/O v3.5.30",
		"version":"2.0"
	},
	"scene":0,
	"scenes":[
		{
			"extras":{
				"blosm":{
					"defaultLevels":[
						{
							"levels":4,
							"weight":10
						},
						{
							"levels":5,
							"weight":40
						},
						{
							"levels":6,
							"weight":10
						}
					],
					"minLon":-65.20818328857422,
					"minLat":-26.819290161132812,
					"maxLon":-65.20606994628906,
					"maxLat":-26.81732940673828
				},
				"lat":-26.818309783935547,
				"lon":-65.20712661743164,
				"b_settings":0,
				"b_renderer":1,
				"b_aa":0,
				"b_player":0,
				"b_export":1,
				"export_path":"C:\\Users\\morenojf\\Desktop\\",
				"s_output":"exporting..."
			},
			"name":"Scene",
			"nodes":[
				0
			]
		}
	],
	"nodes":[
		{
			"mesh":0,
			"name":"map_21.osm_vegetation.002"
		}
	],
	"materials":[
		{
			"doubleSided":true,
			"name":"vegetation",
			"pbrMetallicRoughness":{
				"baseColorFactor":[
					0.007000000216066837,
					0.5580000281333923,
					0.004999999888241291,
					1
				],
				"metallicFactor":0,
				"roughnessFactor":0.4000000059604645
			}
		}
	],
	"meshes":[
		{
			"name":"map_21.osm_vegetation.002",
			"primitives":[
				{
					"attributes":{
						"POSITION":0,
						"NORMAL":1
					},
					"indices":2,
					"material":0
				}
			]
		}
	],
	"accessors":[
		{
			"bufferView":0,
			"componentType":5126,
			"count":4,
			"max":[
				10.222709655761719,
				0,
				10.608726501464844
			],
			"min":[
				-10.222698211669922,
				0,
				-10.60872745513916
			],
			"type":"VEC3"
		},
		{
			"bufferView":1,
			"componentType":5126,
			"count":4,
			"type":"VEC3"
		},
		{
			"bufferView":2,
			"componentType":5123,
			"count":6,
			"type":"SCALAR"
		}
	],
	"bufferViews":[
		{
			"buffer":0,
			"byteLength":48,
			"byteOffset":0,
			"target":34962
		},
		{
			"buffer":0,
			"byteLength":48,
			"byteOffset":48,
			"target":34962
		},
		{
			"buffer":0,
			"byteLength":12,
			"byteOffset":96,
			"target":34963
		}
	],
	"buffers":[
		{
			"byteLength":108,
			"uri":"data:application/octet-stream;base64,"
		}
	]
}
