{
	"asset":{
		"generator":"Khronos glTF Blender I/O v3.5.30",
		"version":"2.0"
	},
	"scene":0,
	"scenes":[
		{
			"extras":{
				"blosm":{
					"defaultLevels":[
						{
							"levels":4,
							"weight":10
						},
						{
							"levels":5,
							"weight":40
						},
						{
							"levels":6,
							"weight":10
						}
					],
					"minLon":-65.20818328857422,
					"minLat":-26.819290161132812,
					"maxLon":-65.20606994628906,
					"maxLat":-26.81732940673828
				},
				"lat":-26.818309783935547,
				"lon":-65.20712661743164,
				"b_settings":0,
				"b_renderer":1,
				"b_aa":0,
				"b_player":0,
				"b_export":1,
				"export_path":"C:\\Users\\morenojf\\Desktop\\",
				"s_output":"exporting..."
			},
			"name":"Scene",
			"nodes":[
				0
			]
		}
	],
	"nodes":[
		{
			"mesh":0,
			"name":"map_21.osm_buildings.003"
		}
	],
	"materials":[
		{
			"doubleSided":true,
			"name":"wall",
			"pbrMetallicRoughness":{
				"baseColorFactor":[
					0.002368240151554346,
					0.4354760944843292,
					0.8000000715255737,
					1
				],
				"metallicFactor":0,
				"roughnessFactor":0.5
			}
		},
		{
			"doubleSided":true,
			"name":"roof",
			"pbrMetallicRoughness":{
				"baseColorFactor":[
					0.005400358233600855,
					0.0450875461101532,
					0.8000000715255737,
					1
				],
				"metallicFactor":0,
				"roughnessFactor":0.5
			}
		}
	],
	"meshes":[
		{
			"name":"map_21.osm_buildings.003",
			"primitives":[
				{
					"attributes":{
						"POSITION":0,
						"NORMAL":1
					},
					"indices":2,
					"material":0
				},
				{
					"attributes":{
						"POSITION":3,
						"NORMAL":4
					},
					"indices":5,
					"material":1
				}
			]
		}
	],
	"accessors":[
		{
			"bufferView":0,
			"componentType":5126,
			"count":44,
			"max":[
				7.894386291503906,
				8.033439636230469,
				10.470104217529297
			],
			"min":[
				-8.209579467773438,
				-8.033439636230469,
				-9.344764709472656
			],
			"type":"VEC3"
		},
		{
			"bufferView":1,
			"componentType":5126,
			"count":44,
			"type":"VEC3"
		},
		{
			"bufferView":2,
			"componentType":5123,
			"count":66,
			"type":"SCALAR"
		},
		{
			"bufferView":3,
			"componentType":5126,
			"count":11,
			"max":[
				7.894386291503906,
				8.033439636230469,
				10.470104217529297
			],
			"min":[
				-8.209579467773438,
				8.033439636230469,
				-9.344764709472656
			],
			"type":"VEC3"
		},
		{
			"bufferView":4,
			"componentType":5126,
			"count":11,
			"type":"VEC3"
		},
		{
			"bufferView":5,
			"componentType":5123,
			"count":27,
			"type":"SCALAR"
		}
	],
	"bufferViews":[
		{
			"buffer":0,
			"byteLength":528,
			"byteOffset":0,
			"target":34962
		},
		{
			"buffer":0,
			"byteLength":528,
			"byteOffset":528,
			"target":34962
		},
		{
			"buffer":0,
			"byteLength":132,
			"byteOffset":1056,
			"target":34963
		},
		{
			"buffer":0,
			"byteLength":132,
			"byteOffset":1188,
			"target":34962
		},
		{
			"buffer":0,
			"byteLength":132,
			"byteOffset":1320,
			"target":34962
		},
		{
			"buffer":0,
			"byteLength":54,
			"byteOffset":1452,
			"target":34963
		}
	],
	"buffers":[
		{
			"byteLength":1508,
			"uri":"data:application/octet-stream;base64,"
		}
	]
}
