{
	"asset":{
		"generator":"Khronos glTF Blender I/O v3.5.30",
		"version":"2.0"
	},
	"scene":0,
	"scenes":[
		{
			"extras":{
				"blosm":{
					"defaultLevels":[
						{
							"levels":4,
							"weight":10
						},
						{
							"levels":5,
							"weight":40
						},
						{
							"levels":6,
							"weight":10
						}
					],
					"minLon":-65.20818328857422,
					"minLat":-26.819290161132812,
					"maxLon":-65.20606994628906,
					"maxLat":-26.81732940673828
				},
				"lat":-26.818309783935547,
				"lon":-65.20712661743164,
				"b_settings":0,
				"b_renderer":1,
				"b_aa":0,
				"b_player":0,
				"b_export":1,
				"export_path":"C:\\Users\\morenojf\\Desktop\\",
				"s_output":"exporting..."
			},
			"name":"Scene",
			"nodes":[
				0
			]
		}
	],
	"nodes":[
		{
			"mesh":0,
			"name":"map_21.osm_vegetation"
		}
	],
	"materials":[
		{
			"doubleSided":true,
			"name":"vegetation",
			"pbrMetallicRoughness":{
				"baseColorFactor":[
					0.007000000216066837,
					0.5580000281333923,
					0.004999999888241291,
					1
				],
				"metallicFactor":0,
				"roughnessFactor":0.4000000059604645
			}
		}
	],
	"meshes":[
		{
			"name":"map_21.osm_vegetation",
			"primitives":[
				{
					"attributes":{
						"POSITION":0,
						"NORMAL":1
					},
					"indices":2,
					"material":0
				}
			]
		}
	],
	"accessors":[
		{
			"bufferView":0,
			"componentType":5126,
			"count":9,
			"max":[
				30.356752395629883,
				0,
				21.47964096069336
			],
			"min":[
				-26.896175384521484,
				0,
				-28.44701385498047
			],
			"type":"VEC3"
		},
		{
			"bufferView":1,
			"componentType":5126,
			"count":9,
			"type":"VEC3"
		},
		{
			"bufferView":2,
			"componentType":5123,
			"count":21,
			"type":"SCALAR"
		}
	],
	"bufferViews":[
		{
			"buffer":0,
			"byteLength":108,
			"byteOffset":0,
			"target":34962
		},
		{
			"buffer":0,
			"byteLength":108,
			"byteOffset":108,
			"target":34962
		},
		{
			"buffer":0,
			"byteLength":42,
			"byteOffset":216,
			"target":34963
		}
	],
	"buffers":[
		{
			"byteLength":260,
			"uri":"data:application/octet-stream;base64,"
		}
	]
}
